<svg xmlns="http://www.w3.org/2000/svg" width="16.813" height="27.511" viewBox="0 0 16.813 27.511">
  <path id="Path_1530" data-name="Path 1530" d="M142.952,91.532a.763.763,0,0,1-.725-1l3.2-9.7h-6a.764.764,0,0,1-.628-1.2L149.39,64.348a.765.765,0,0,1,1.376.6l-2.152,9.772h6.1a.764.764,0,0,1,.605,1.23L143.557,91.234a.76.76,0,0,1-.605.3ZM140.892,79.3h5.594a.763.763,0,0,1,.725,1l-2.125,6.433,8.078-10.495h-5.5a.766.766,0,0,1-.747-.929l1.522-6.91Z" transform="translate(-138.668 -64.02)" fill="#8c9cac"/>
</svg>
