<svg xmlns="http://www.w3.org/2000/svg" width="17.143" height="17.143" viewBox="0 0 17.143 17.143">
  <path id="Path_1510" data-name="Path 1510" d="M4.263-14.565a8.415,8.415,0,0,1,4.308-1.15,8.385,8.385,0,0,1,4.3,1.15,8.533,8.533,0,0,1,3.119,3.119,8.385,8.385,0,0,1,1.15,4.3,8.385,8.385,0,0,1-1.15,4.3A8.533,8.533,0,0,1,12.874.279a8.385,8.385,0,0,1-4.3,1.15,8.385,8.385,0,0,1-4.3-1.15A8.533,8.533,0,0,1,1.15-2.84,8.385,8.385,0,0,1,0-7.143a8.385,8.385,0,0,1,1.15-4.3A8.546,8.546,0,0,1,4.263-14.565ZM11.629-9.9a.631.631,0,0,0-.106.106.288.288,0,0,1-.151.106q.022,0,.05-.056t.056-.123a.342.342,0,0,1,.039-.078.808.808,0,0,1,.246-.167,2.812,2.812,0,0,1,.58-.134.544.544,0,0,1,.569.123q-.022-.022.106-.145a.767.767,0,0,1,.162-.134.6.6,0,0,1,.167-.05.249.249,0,0,0,.167-.084l.022-.246a.2.2,0,0,1-.2-.078.472.472,0,0,1-.073-.234q0,.022-.067.089,0-.078-.05-.089a.268.268,0,0,0-.128.011.176.176,0,0,1-.1.011.438.438,0,0,1-.167-.084.368.368,0,0,1-.089-.184q-.033-.134-.045-.167a.3.3,0,0,0-.106-.117.3.3,0,0,1-.106-.117q-.011-.022-.028-.061t-.033-.073a.235.235,0,0,0-.045-.061.085.085,0,0,0-.061-.028q-.033,0-.078.056t-.084.112q-.039.056-.05.056a.091.091,0,0,0-.067-.017.356.356,0,0,0-.05.011.188.188,0,0,0-.05.033.312.312,0,0,1-.056.039.255.255,0,0,1-.095.033.729.729,0,0,0-.095.022q.167-.056-.011-.123a.352.352,0,0,0-.179-.033.116.116,0,0,0,.084-.134.269.269,0,0,0-.095-.156h.056q-.011-.045-.095-.095a1.368,1.368,0,0,0-.2-.095.961.961,0,0,1-.145-.067,1.237,1.237,0,0,0-.379-.106.692.692,0,0,0-.368-.006.166.166,0,0,0-.05.117.756.756,0,0,0,.045.156.539.539,0,0,1,.039.14.177.177,0,0,1-.061.145.218.218,0,0,0-.073.134q0,.078.156.173a.2.2,0,0,1,.112.24.4.4,0,0,1-.179.179.748.748,0,0,0-.179.134.233.233,0,0,0-.017.206.4.4,0,0,0,.117.184.046.046,0,0,1,.017.045.108.108,0,0,1-.039.05.5.5,0,0,1-.061.045q-.028.017-.073.039l-.033.022a.183.183,0,0,1-.229-.067.721.721,0,0,1-.151-.29q-.078-.279-.179-.335-.257-.089-.324.011-.056-.145-.458-.29a1.315,1.315,0,0,0-.647-.045q.067-.011,0-.167t-.212-.134a.56.56,0,0,0,.045-.2q.011-.128.011-.151A.569.569,0,0,1,8-12.344q.011-.011.078-.095a1.281,1.281,0,0,0,.106-.151q.039-.067.006-.067a.659.659,0,0,0,.558-.123.858.858,0,0,0,.128-.19A1.391,1.391,0,0,1,9-13.158a.271.271,0,0,1,.156-.061.5.5,0,0,1,.162.061.393.393,0,0,0,.162.056q.156.011.173-.123a.242.242,0,0,0-.084-.223q.134.011.033-.19a.426.426,0,0,0-.089-.1.358.358,0,0,0-.3.056q-.089.045.022.089-.011-.011-.106.117a.944.944,0,0,1-.184.2q-.089.067-.179-.056a.9.9,0,0,1-.061-.151q-.05-.14-.106-.151-.089,0-.179.167.033-.089-.123-.167a.8.8,0,0,0-.268-.089q.212-.134-.089-.3a.554.554,0,0,0-.229-.056.3.3,0,0,0-.218.045.3.3,0,0,0-.061.128.1.1,0,0,0,.056.089.715.715,0,0,0,.117.061q.056.022.128.045a.765.765,0,0,1,.095.033q.156.112.089.156-.022.011-.095.039l-.128.05a.127.127,0,0,0-.067.045.183.183,0,0,0,0,.156q.033.112-.022.156a.494.494,0,0,1-.1-.2.712.712,0,0,0-.078-.184q.078.1-.279.067L7.031-13.4a1.37,1.37,0,0,0-.179.022.829.829,0,0,1-.229.011.208.208,0,0,1-.151-.089.288.288,0,0,1,0-.223q.011-.045.045-.022-.045-.033-.123-.106a1.089,1.089,0,0,0-.112-.095,6.329,6.329,0,0,0-1.049.458.275.275,0,0,0,.134-.011,1.3,1.3,0,0,0,.145-.073l.112-.061q.379-.156.469-.078l.056-.056a2.973,2.973,0,0,1,.223.279.634.634,0,0,0-.335-.011q-.223.067-.246.134a.273.273,0,0,1,.056.2q-.045-.033-.128-.112a.885.885,0,0,0-.162-.123.446.446,0,0,0-.167-.056,1.77,1.77,0,0,0-.246.011,7.043,7.043,0,0,0-2.623,2.478.3.3,0,0,0,.134.089q.045.011.056.1a.428.428,0,0,0,.028.123q.017.033.128-.033a.156.156,0,0,1,.033.212,4.1,4.1,0,0,1,.491.3,1.523,1.523,0,0,1,.234.234q.033.123-.112.2a.571.571,0,0,0-.1-.1q-.089-.078-.1-.045a.3.3,0,0,0,.006.206q.039.151.117.14-.078,0-.106.179a2.578,2.578,0,0,0-.028.4,1.664,1.664,0,0,1-.011.262l.022.011a.7.7,0,0,0,.061.385q.095.251.24.218-.145.033.223.48a.438.438,0,0,0,.089.1l.134.084q.1.061.167.112a.476.476,0,0,1,.112.117.982.982,0,0,1,.112.251.546.546,0,0,0,.156.262q-.022.067.106.223a.383.383,0,0,1,.117.257A.054.054,0,0,0,4.8-6.15a.054.054,0,0,1-.028.011.381.381,0,0,0,.173.156.419.419,0,0,1,.173.145.714.714,0,0,1,.022.112.411.411,0,0,0,.033.123q.022.045.089.022A1.314,1.314,0,0,0,5-6.272q-.167-.279-.19-.324a.642.642,0,0,1-.061-.173.851.851,0,0,0-.05-.162.214.214,0,0,1,.067.017q.045.017.095.039a.569.569,0,0,1,.084.045q.033.022.022.033a.237.237,0,0,0,.022.2.9.9,0,0,0,.134.206q.078.089.19.212t.134.145A1.147,1.147,0,0,1,5.6-5.82q.089.151,0,.151a.351.351,0,0,1,.223.112,1.011,1.011,0,0,1,.19.223.835.835,0,0,1,.089.29,2.15,2.15,0,0,0,.056.268.353.353,0,0,0,.095.151.554.554,0,0,0,.14.106l.179.089q.112.056.145.078a1.627,1.627,0,0,1,.206.117,1.44,1.44,0,0,0,.24.128.514.514,0,0,0,.179.045.59.59,0,0,0,.162-.028q.095-.028.151-.039a.363.363,0,0,1,.324.167,1.1,1.1,0,0,0,.234.234.764.764,0,0,0,.614.123q-.022.011.006.084a1.108,1.108,0,0,0,.089.173q.061.1.1.162l.061.095a1.06,1.06,0,0,0,.2.167,1.06,1.06,0,0,1,.2.167.164.164,0,0,0,.078-.1q-.033.089.078.223t.2.112Q10-2.556,10-2.879a.376.376,0,0,1-.547-.2.218.218,0,0,0-.028-.061.711.711,0,0,1-.045-.095.706.706,0,0,1-.028-.095.158.158,0,0,1,0-.084.052.052,0,0,1,.056-.033q.1,0,.112-.039a.278.278,0,0,0-.022-.14q-.033-.1-.045-.145A.482.482,0,0,0,9.33-4q-.112-.134-.134-.167a.17.17,0,0,1-.179.089.22.22,0,0,1-.179-.1.308.308,0,0,1-.017.061.266.266,0,0,0-.017.073.636.636,0,0,1-.167-.011,1.381,1.381,0,0,0,.028-.2A1.9,1.9,0,0,1,8.705-4.5a.62.62,0,0,1,.061-.134q.05-.089.084-.162a.55.55,0,0,0,.045-.14.1.1,0,0,0-.05-.106.324.324,0,0,0-.2-.028.308.308,0,0,0-.29.223q-.011.033-.033.117A.378.378,0,0,1,8.27-4.6a.278.278,0,0,1-.1.078A.652.652,0,0,1,7.9-4.5a.658.658,0,0,1-.268-.056.707.707,0,0,1-.251-.324,1.025,1.025,0,0,1-.106-.413,2.074,2.074,0,0,1,.028-.3q.028-.184.033-.279a.733.733,0,0,0-.061-.273.566.566,0,0,0,.1-.106.693.693,0,0,1,.112-.117.2.2,0,0,1,.05-.017.114.114,0,0,1,.05,0A.046.046,0,0,0,7.634-6.4a.142.142,0,0,0,.033-.067A.333.333,0,0,0,7.623-6.5q-.033-.033-.045-.033A.64.64,0,0,0,7.9-6.546q.24-.05.307.017.167.123.246-.022a.888.888,0,0,0-.028-.106.235.235,0,0,1-.006-.151q.056.3.324.1a.361.361,0,0,0,.173.056.594.594,0,0,1,.2.056.781.781,0,0,1,.078.061.753.753,0,0,0,.061.05q.017.011.056-.006A.336.336,0,0,0,9.4-6.562a.743.743,0,0,1,.134.268q.123.446.212.491a.2.2,0,0,0,.123.022q.045-.011.05-.106a1.083,1.083,0,0,0,0-.156Q9.911-6.1,9.9-6.183l-.011-.089v-.2l-.011-.089A.252.252,0,0,1,9.671-6.7.24.24,0,0,1,9.688-6.9a.757.757,0,0,1,.167-.206.364.364,0,0,1,.089-.039q.078-.028.173-.073a.5.5,0,0,0,.14-.089q.234-.212.167-.391.078,0,.123-.1a.163.163,0,0,1-.056-.033.816.816,0,0,0-.084-.056.152.152,0,0,0-.05-.022q.1-.056.022-.179a.207.207,0,0,0,.084-.123.161.161,0,0,1,.084-.112.143.143,0,0,0,.234.022.129.129,0,0,0,.011-.179.376.376,0,0,1,.229-.117q.173-.039.206-.106.078.022.089-.022a.6.6,0,0,0,.011-.134A.222.222,0,0,1,11.362-9a.38.38,0,0,1,.167-.1q.123-.045.145-.056l.19-.123q.033-.045,0-.045a.4.4,0,0,0,.346-.123q.112-.123-.067-.223a.072.072,0,0,0-.033-.106.584.584,0,0,0-.167-.061.4.4,0,0,1,.128-.006q.095.006.117-.017.167-.112-.078-.179A.6.6,0,0,0,11.629-9.9ZM9.81-.112a6.906,6.906,0,0,0,3.917-2.109.266.266,0,0,0-.14-.05.4.4,0,0,1-.14-.039,1.756,1.756,0,0,0-.268-.089.219.219,0,0,0-.028-.145.3.3,0,0,0-.089-.1l-.14-.089L12.8-2.812q-.022-.022-.078-.067l-.078-.061a.792.792,0,0,0-.084-.05.128.128,0,0,0-.095-.022A.392.392,0,0,1,12.355-3l-.033.011a.308.308,0,0,0-.061.028q-.028.017-.061.033a.115.115,0,0,0-.045.033q-.011.017,0,.028a1.382,1.382,0,0,0-.4-.246.315.315,0,0,1-.123-.061,1.06,1.06,0,0,0-.117-.078A.163.163,0,0,0,11.4-3.27a.255.255,0,0,0-.128.078.267.267,0,0,0-.067.167.846.846,0,0,1-.022.145q-.078-.056,0-.2t.022-.206a.1.1,0,0,0-.117-.05.373.373,0,0,0-.134.05q-.05.033-.128.095a.869.869,0,0,1-.1.073,1.068,1.068,0,0,0-.095.061.375.375,0,0,0-.095.084.554.554,0,0,0-.067.134.675.675,0,0,1-.056.123q-.022-.045-.128-.073t-.106-.061a3.887,3.887,0,0,1,.045.391,3.134,3.134,0,0,0,.056.424.515.515,0,0,1-.134.536.92.92,0,0,0-.324.446q-.045.246.134.29a.517.517,0,0,1-.089.229.413.413,0,0,0-.078.24A.96.96,0,0,0,9.81-.112Z" transform="translate(0 15.714)" fill="#8c9cac"/>
</svg>
