<svg id="Group_498" data-name="Group 498" xmlns="http://www.w3.org/2000/svg" width="17" height="13.514" viewBox="0 0 17 13.514">
  <g id="Group_497" data-name="Group 497">
    <path id="Path_1472" data-name="Path 1472" d="M203.968,123.693a.664.664,0,0,0-.844-.079c-.994.677-5.978,4.083-6.513,4.619a1.992,1.992,0,0,0,2.817,2.817c.536-.536,3.941-5.52,4.619-6.513A.664.664,0,0,0,203.968,123.693Zm-5.479,6.418a.664.664,0,0,1-.939-.939c.208-.206,1.623-1.215,3.364-2.425C199.7,128.487,198.695,129.9,198.489,130.11Z" transform="translate(-189.52 -121.141)" fill="#fff"/>
    <path id="Path_1473" data-name="Path 1473" d="M3.062,64.088l-.82.4a7.138,7.138,0,0,1-.448-6.035l.939.451a.664.664,0,1,0,.574-1.2l-.927-.445a7.181,7.181,0,0,1,5.455-3.4v1a.664.664,0,1,0,1.328,0v-1a7.09,7.09,0,0,1,2.283.6.664.664,0,1,0,.546-1.21A8.493,8.493,0,0,0,1.44,65.718a.664.664,0,0,0,.843.228l1.361-.664a.664.664,0,1,0-.582-1.194Z" transform="translate(0 -52.499)" fill="#fff"/>
    <path id="Path_1474" data-name="Path 1474" d="M393.3,191.885a.664.664,0,0,0-1.211.546,7.148,7.148,0,0,1-.286,6.441l-.856-.408a.664.664,0,1,0-.571,1.2l1.395.664a.664.664,0,0,0,.838-.231,8.48,8.48,0,0,0,.691-8.213Z" transform="translate(-377.046 -186.879)" fill="#fff"/>
  </g>
</svg>
