<svg xmlns="http://www.w3.org/2000/svg" width="217.252" height="55.442" viewBox="0 0 217.252 55.442">
    <defs>
        <linearGradient id="linear-gradient" x2="1" y1=".5" y2=".5" gradientUnits="objectBoundingBox">
            <stop offset="0" stop-color="#01b7d5"/>
            <stop offset=".194" stop-color="#00abd8"/>
            <stop offset=".537" stop-color="#008de3"/>
            <stop offset=".987" stop-color="#005df4"/>
            <stop offset=".998" stop-color="#005cf5"/>
        </linearGradient>
        <style>
            .cls-1{fill:#31313a}
        </style>
    </defs>
    <g id="Group_1" transform="translate(-363.881 -209.196)">
        <path id="Path_3" d="M6.06-10l-1.051.62a1.806 1.806 0 0 0-.562-.667 1.31 1.31 0 0 0-.717-.178 1.325 1.325 0 0 0-.9.306.948.948 0 0 0-.356.756q0 .628.934 1.012l.856.35A3.656 3.656 0 0 1 5.8-6.769a2.325 2.325 0 0 1 .484 1.493 2.623 2.623 0 0 1-.79 1.957 2.71 2.71 0 0 1-1.974.779 2.641 2.641 0 0 1-1.848-.66 3.047 3.047 0 0 1-.9-1.863l1.312-.289A2.232 2.232 0 0 0 2.4-4.308a1.349 1.349 0 0 0 1.168.556 1.355 1.355 0 0 0 1.007-.406 1.4 1.4 0 0 0 .4-1.029 1.444 1.444 0 0 0-.07-.459 1.164 1.164 0 0 0-.217-.384 1.733 1.733 0 0 0-.381-.328 3.67 3.67 0 0 0-.556-.292l-.829-.345a2.385 2.385 0 0 1-1.763-2.18 2.068 2.068 0 0 1 .74-1.618 2.672 2.672 0 0 1 1.841-.656A2.57 2.57 0 0 1 6.06-10zm6.14 2.973a4.205 4.205 0 0 1 1.329-3.114 4.374 4.374 0 0 1 3.181-1.3 4.293 4.293 0 0 1 3.147 1.312 4.29 4.29 0 0 1 1.318 3.153 4.222 4.222 0 0 1-1.323 3.142 4.429 4.429 0 0 1-3.209 1.3 4.43 4.43 0 0 1-2.986-1.151A4.219 4.219 0 0 1 12.2-7.027zm1.307.017a3.1 3.1 0 0 0 .956 2.341 3.07 3.07 0 0 0 2.2.918 3.09 3.09 0 0 0 2.28-.934 3.162 3.162 0 0 0 .929-2.3 3.146 3.146 0 0 0-.918-2.3 3.029 3.029 0 0 0-2.258-.934 3.059 3.059 0 0 0-2.263.934 3.1 3.1 0 0 0-.926 2.274zm15.377-4.271v7.368h2.525V-2.7h-3.82v-8.586zm14.059 6.5h-3.677L38.31-2.7h-1.4l4.248-9.125 4.1 9.125h-1.415zM42.414-6L41.14-8.918 39.806-6zm11.612-.356L56.684-2.7H55.1l-2.454-3.51h-.234v3.51h-1.3v-8.586h1.518a3.792 3.792 0 0 1 2.458.639 2.349 2.349 0 0 1 .834 1.88 2.439 2.439 0 0 1-.522 1.573 2.33 2.33 0 0 1-1.375.839zm-1.613-.984h.411q1.841 0 1.841-1.407 0-1.318-1.791-1.318h-.462zm23.379-2.725H72.35V-8h3.342v1.218H72.35v2.869h3.442V-2.7h-4.738v-8.586h4.738zM82.277-2.7v-9.17l6.261 6.551v-5.967h1.3v9.109l-6.265-6.53V-2.7zm19.136-7.368h-3.442V-8h3.342v1.218h-3.342v2.869h3.442V-2.7h-4.738v-8.586h4.738zm9.393 3.709l2.658 3.659h-1.585l-2.452-3.51h-.234v3.51h-1.3v-8.586h1.518a3.792 3.792 0 0 1 2.458.639 2.349 2.349 0 0 1 .834 1.88 2.439 2.439 0 0 1-.523 1.568 2.33 2.33 0 0 1-1.374.844zm-1.613-.984h.412q1.841 0 1.841-1.407 0-1.318-1.791-1.318h-.462zm14.565.172h3.548v.284a5.86 5.86 0 0 1-.228 1.713 3.64 3.64 0 0 1-.751 1.29 3.889 3.889 0 0 1-3.042 1.346 4.182 4.182 0 0 1-3.086-1.3 4.315 4.315 0 0 1-1.285-3.136 4.3 4.3 0 0 1 1.307-3.17 4.329 4.329 0 0 1 3.181-1.307 4.353 4.353 0 0 1 1.88.412 5.421 5.421 0 0 1 1.64 1.335l-.922.886a3.133 3.133 0 0 0-2.575-1.407 3.076 3.076 0 0 0-2.285.94 3.138 3.138 0 0 0-.923 2.313 3.043 3.043 0 0 0 1.029 2.363 3.069 3.069 0 0 0 2.085.862 2.589 2.589 0 0 0 1.718-.645 2.3 2.3 0 0 0 .851-1.557h-2.141zm11.412.771l-2.8-4.877h1.49l1.96 3.427 1.969-3.431h1.49L136.465-6.4v3.7h-1.3z" class="cls-1" transform="translate(441.854 262.896)"/>
        <path id="Path_1" fill="url(#linear-gradient)" d="M385.664 233.922h-19.34a2.44 2.44 0 0 1-2.211-3.472l9.257-19.85a2.441 2.441 0 0 1 2.212-1.409h19.34a2.44 2.44 0 0 1 2.212 3.472l-9.257 19.844a2.441 2.441 0 0 1-2.213 1.415zm39.587-24.722h-19.34a2.439 2.439 0 0 0-2.211 1.4l-9.258 19.845a2.44 2.44 0 0 0 2.212 3.472h19.341a2.439 2.439 0 0 0 2.211-1.409l9.258-19.844a2.441 2.441 0 0 0-2.213-3.464zm-30.33 30.716h-19.34a2.441 2.441 0 0 0-2.212 1.409l-9.257 19.845a2.44 2.44 0 0 0 2.211 3.472h19.341a2.441 2.441 0 0 0 2.212-1.409l9.257-19.845a2.441 2.441 0 0 0-2.212-3.476zm30.33 0h-19.34a2.439 2.439 0 0 0-2.212 1.409l-9.258 19.845a2.441 2.441 0 0 0 2.212 3.472h19.341a2.439 2.439 0 0 0 2.211-1.409l9.258-19.845a2.441 2.441 0 0 0-2.212-3.476z"/>
        <path id="Path_2" d="M10.135-13.608h2.981c7.179 0 11.22-4.511 11.22-10.435s-4.041-10.474-11.22-10.474H2.995v26.675h7.14zm0-6.041v-8.827h2.628c3.217 0 4.394 1.844 4.394 4.433s-1.177 4.393-4.394 4.393zm40.759-14.868h-7.258l-5.3 12.436-5.448-12.436h-7.61L37.83-7.567a.245.245 0 0 0 .471 0zM64.428-7.842H82.9v-6H71.567v-20.675h-7.14zm22.714 0h7.14v-26.675h-7.14zm36.169-26.676h-7.257l-5.3 12.436-5.454-12.435h-7.61l12.553 26.95a.245.245 0 0 0 .471 0zm10.074 6.018v4.426h7.763v5.831h-7.763v4.566h8.184v5.831H126.5v-26.48h15.069v5.826z" class="cls-1" transform="translate(439.314 249.296)"/>
    </g>
</svg>
