<svg xmlns="http://www.w3.org/2000/svg" width="413.021" height="405.643" viewBox="0 0 413.021 405.643">
    <defs>
        <style>
            .cls-2{fill:#003069}
        </style>
    </defs>
    <g id="Group_188" opacity="0.244" transform="rotate(-10.02 433.533 3978.325)">
        <path id="Path_4" d="M475.162 722.889l-2.175-2.525v-2.245l3.227.912 1.4 3.157-.421 1.684-1.613-.14z" class="cls-2" transform="translate(357.264 -350.661)"/>
        <path id="Path_5" d="M504.561 750.608l-1.263-7.085 1.543-2.806h.912l2.315 1.754.561 6.8 8.7.421 2.6-.351.631-3.086 1.894-.842 4.49 1.894.21 3.788-1.684 2.034.561.14.982-.7 2.6 1.052.7 5.472 7.225-.561 6.524-1.263 3.227-2.245 9.681.7 1.192.491 1.263-.842 3.507.351 1.4 1.333 1.613 2.034 2.736 1.192 10.873-.14 2.315 1.964 3.788-1.052 6.384-1.824 4.489.561-2.6 8.839.772 2.385 2.806 1.4.351-1.824 8.558-4.419h4.84l.7 1.473.772-.842 3.227-3.437 1.543-.14 1.333-1.473 1.122.281-1.614 5.331 1.614.491.631 1.192-.912 1.052-.351 3.648-1.4.912-.842 3.367L612.1 780l-2.806-.14-.772-1.4-1.263.421-2.315-.631-7.927 1.824-5.051-.772-29.673 1.052-.631 3.3-8.137-.421-1.263.842-2.6-.07.07-6.8-1.193-1.754-6.383-.7-2.6-2.245-3.779-.506-2.1-1.613-16.064-.842-1.122-1.333-2.1-.28-4.77-.982-10.733.842-3.718-3.648.351-4.349 2.1-12.837 1.122-2.6 1.473.07 1.122 5.963 1.824.631z" class="cls-2" transform="translate(346.104 -362.035)"/>
        <path id="Path_6" d="M439.666 667.173l1.2-2.676 2.733.171.968 3.53 6.263 4.555-1.594 2.676-1.537.171-.171 4.27-4.384-.455-3.359-3.644.057-2.277.456-1.025-.911-3.3z" class="cls-2" transform="translate(374.179 -323.672)"/>
        <path id="Path_7" d="M457.338 566.877l.261-1.1 1.934.418 3.031 1.62-1.829 1.777-2.195-.47z" class="cls-2" transform="translate(365.141 -273.985)"/>
        <path id="Path_8" d="M486.06 509.484l2.352-1.15 5.33.157.47 3.4-1.829 1.411.1 1.62-2.352.941-2.822-1.254-.052-1.359-.836-2.09z" class="cls-2" transform="translate(350.685 -245.072)"/>
        <path id="Path_9" d="M562.547 528.571l-.1-6.95 3.135-3.4 4.18 1.254-.313 4.337-5.382 6.166z" class="cls-2" transform="translate(312.24 -250.05)"/>
        <path id="Path_10" d="M571.589 547.491l-.523-2.979 1.725-1.933 2.142-.157-.157 1.881 3.135 2.4-1.881 2.3.1 2.038-3.919 2.874-1.1-.157-.679-2.979.993-1.829z" class="cls-2" transform="translate(308.215 -262.229)"/>
        <path id="Path_11" d="M574.856 578.677l-.209-2.822 1.986-2.77 3.188-.784 1.568.836.575 4.233-2.352 2.195z" class="cls-2" transform="translate(306.097 -277.268)"/>
        <path id="Path_12" d="M615.612 549.039l-.784-1.724-1.359-.523 1.986-4.233-.052-1.411-.732-.47v-1.306l4.494 1.15-.1 2.508 1.15 2.4-.993 2.3z" class="cls-2" transform="translate(286.557 -260.694)"/>
        <path id="Path_13" d="M646.29 553.075l-.836-3.24 1.2-.679 2.3 2.3-1.306 1.568-.575.627z" class="cls-2" transform="translate(270.458 -265.618)"/>
        <path id="Path_14" d="M598.4 601.442l-3.24-5.017v-3.292l4.285.1 1.306 3.4 1.149 1.515-1.149 1.515z" class="cls-2" transform="translate(295.771 -287.753)"/>
        <path id="Path_15" d="M629.457 590.9l-.732-2.195.523-2.665 4.807-2.508.366-2.038 4.494-2.77.157.627.993-.575 1.359.1.418 7.681-5.487 3.815-2.613-1.1-1.411 2.613H630.5z" class="cls-2" transform="translate(278.878 -280.499)"/>
        <path id="Path_16" d="M654.081 544.917l.313-1.411-.157-1.463 1.515-1.724 7.159 1.829-.784 1.515-4.337 3.71-3.031-1.15z" class="cls-2" transform="translate(266.116 -261.17)"/>
        <path id="Path_17" d="M559.172 621.041l-1.359-2.09 2.038-1.829.836.157.157 2.351-.732 1.306z" class="cls-2" transform="translate(314.57 -299.827)"/>
        <path id="Path_18" d="M566.862 625.083l.1-5.8 1.724-1.986 1.463.575.941-1.2 1.411.052 1.515 1.1 1.724-.575-.261-3.135 1.986-2.038 1.568.888 1.515.47-.627 2.143-1.2 2.665-.732 5.225-10.138 2.09z" class="cls-2" transform="translate(310.015 -297.285)"/>
        <path id="Path_19" d="M593.268 622.257l-.209-1.045 1.2-1.881 2.613 1.306-.784 2.717-.888.261z" class="cls-2" transform="translate(296.83 -300.939)"/>
        <path id="Path_20" d="M612.675 636.2l-.888-1.1.209-.941 2.874-.731 2.247 2.09 2.195.47-.312 3.137-3.292-.209-1.359-1.724z" class="cls-2" transform="translate(287.404 -308.035)"/>
        <path id="Path_21" d="M634.191 633.806l-.732-.679.523-4.128 3.606-1.777 1.724.575.418 1.306-3.083 3.658z" class="cls-2" transform="translate(276.495 -304.911)"/>
        <path id="Path_22" d="M649.5 624.6l-.366-4.18 2.566-1.72 1.15.679 4.6 4.6-.261 2.926-1.1 2.09-1.777-.157-3.4-3.24z" class="cls-2" transform="translate(268.605 -300.621)"/>
        <path id="Path_23" d="M664.811 614.674l-.209-1.411 2.456-2.77.784.052.993 3.188-1.463 1.411z" class="cls-2" transform="translate(260.821 -296.491)"/>
        <path id="Path_24" d="M681.171 609.471l-.157-1.1 2.717-2.3.94.052 1.516 2.4-.523 1.1z" class="cls-2" transform="translate(252.56 -294.267)"/>
        <path id="Path_25" d="M697.365 584.477l-1.411-2.3.941-1.2 1.724-.993 1.881.209.209 3.449-1.986 1.1z" class="cls-2" transform="translate(245.04 -281.134)"/>
        <path id="Path_26" d="M662.047 590.443l-4.494-7 .627-4.494 2.979-1.986 1.359-.052 1.045-1.881 3.031-1.568 1.254.052 3.083 6.9-.679 1.62-2.979 8.047-1.359-.575-2.038 1.15z" class="cls-2" transform="translate(264.369 -277.851)"/>
        <path id="Path_27" d="M693.061 612.112l1.306-2.247 2.874-.418.941-1.829 5.382-3.083.261-1.15 2.352-.888 3.553 2.352-1.307 2.351-2.351-.418-6.584 6.427-3.5 1.2-2.979-1.2z" class="cls-2" transform="translate(246.523 -292.466)"/>
        <path id="Path_28" d="M754.924 597.167l-.157-1.307 1.463-1.359 2.613.47.366 1.672-2.508.941z" class="cls-2" transform="translate(215.439 -288.442)"/>
        <path id="Path_29" d="M657.859 662.41l-.314-1.41 2.822-.575-.314-3.135-.732-.1-.888 2.143-2.033-.633.418-3.815 3.24-1.045 3.553 3.5 1.568 4.337-2.508 1.933-2.874-.679z" class="cls-2" transform="translate(264.951 -318.308)"/>
        <path id="Path_30" d="M693.793 667.75l-.679-2.613 1.411-1.934 1.829.1 3.292 2.613-.418 1.045-3.4 1.359z" class="cls-2" transform="translate(246.47 -323.021)"/>
        <path id="Path_31" d="M741.184 645.367l-1.672-2.769.209-3.762 3.135-.1.679.941 1.777-.052-1.2-1.515.679-1.1 2.769.1 3.24 3.762-.366 1.254-4.86.732-.209 2.717z" class="cls-2" transform="translate(223.117 -309.835)"/>
        <path id="Path_32" d="M816.21 642.87l.1-2.77 3.344-1.515 2.142.732-.732 3.135-1.568 1.306z" class="cls-2" transform="translate(184.513 -310.63)"/>
        <path id="Path_33" d="M882.755 660.976l6.009-2.717 1.934 2.77.679 5.8-1.672 1.986.157 1.829-4.337 5.33.94 1.777-.94 3.606-4.39-1.045-2.352 2.874-3.971 5.957-3.867 1.568-2.508-3.344 1.359-9.04-2.77-2.613 3.135-3.553.627-2.926 5.121-4.964z" class="cls-2" transform="translate(158.936 -320.532)"/>
        <path id="Path_34" d="M876.472 644.22L876 642.5l-2.822-.941-.157-1.2 2.77-3.031h3.135l.418 5.121-1.516 2.09z" class="cls-2" transform="translate(155.918 -309.994)"/>
        <path id="Path_35" d="M867.026 679.487l.157-2.822 1.463-.836 1.307.941-.052 1.515-1.724 1.515z" class="cls-2" transform="translate(158.936 -329.376)"/>
        <path id="Path_36" d="M855.585 684.061l-3.919-.47.261-2.926 4.39-.627 1.254 1.463-.314 1.672z" class="cls-2" transform="translate(166.668 -331.494)"/>
        <path id="Path_37" d="M835.955 661.257l-1.881-2.717-2.09-.1-1.045-3.867 1.986-.366 1.776-.888.732 1.045 3.031 3.449.627 2.142-1.463 1.411z" class="cls-2" transform="translate(177.1 -318.043)"/>
        <path id="Path_38" d="M801.351 621.02l-3.553-2.874.418-3.658 2.717-1.1 3.919-3.553 7.211-3.4 3.71-.366.47 1.2 2.351.052.052 3.292-6.114 2.09-4.181 3.188-5.278.366-1.2 3.762z" class="cls-2" transform="translate(193.781 -294.267)"/>
        <path id="Path_39" d="M816.672 604.314l2.822-1.1-1.829-2.508-2.613.679.418 1.777z" class="cls-2" transform="translate(185.096 -291.566)"/>
        <path id="Path_40" d="M791.489 580.309l-4.076-.366-.261-1.045-3.031-2.665 3.5-2.142 1.672.784 2.038 3.553z" class="cls-2" transform="translate(200.665 -278.169)"/>
        <path id="Path_41" d="M792.643 587.978c.209 0 4.494.1 4.494.1l2.979 1.933-.157 1.045 1.411-.261 1.62 1.306a41.4 41.4 0 0 1-.366 4.442c-.157-.052-2.665 0-2.665 0l-.888 1.254-3.815-1.254.209-2.979-1.306-1.2.052-1.934z" class="cls-2" transform="translate(196.375 -285.158)"/>
        <path id="Path_42" d="M779.7 561.766l-.314-2.3 6.375 2.143-1.986 2.038z" class="cls-2" transform="translate(203.048 -270.808)"/>
        <path id="Path_43" d="M800.793 545.614l-.575-1.568 1.672-.993 2.979 1.254-1.881 2.247z" class="cls-2" transform="translate(192.562 -262.547)"/>
        <path id="Path_44" d="M766.052 561.314l.366-3.135 1.62-.314-1.62-3.449-4.076.575.418 5.487 2.56 1.463z" class="cls-2" transform="translate(211.626 -268.266)"/>
        <path id="Path_45" d="M625.144 522.76l2.461-2.591h2.2l1.036 1.166 8.678 3.238-3.238 6.088-5.44-3.109-.906-1.166z" class="cls-2" transform="translate(280.681 -251.029)"/>
        <path id="Path_46" d="M610.827 500.884l-2.461 1.036-2.2-4.015-4.922-3.886-1.036-2.331-2.2-.777-2.849-4.533 8.419-3.238.13 2.331 5.829 4.145v3.627l2.461 3.627z" class="cls-2" transform="translate(295.775 -232.391)"/>
        <path id="Path_47" d="M484.454 349.829v-1.716l2.084-.981.8-1.471 2.023-.061 2.146 2.084-2.881 3.678z" class="cls-2" transform="translate(351.493 -163.164)"/>
        <path id="Path_48" d="M501.36 347.19l-.613-1.287 2.391-.8 1.839 2.207 2.575.736 1.165 1.349 2.084.491.613 1.778-1.349 1.962-1.962 1.226-4.72-1.165-.245-2.575-1.594-2.759z" class="cls-2" transform="translate(343.292 -162.916)"/>
        <path id="Path_49" d="M524.5 347.2l-1.1-.613-.429-.858 2.084-2.023-.184-2.513 1.778-1.042 1.165-2.82 2.7.123v3.372l1.655 1.839-.8 2.023-3.249.613-.675-.49z" class="cls-2" transform="translate(332.11 -159.002)"/>
        <path id="Path_50" d="M542.27 332.85l-.613-1.9-.92-1.9 2.023-1.594 1.962.368 1.1 3.494-1.9 1.594z" class="cls-2" transform="translate(323.164 -154.032)"/>
        <path id="Path_51" d="M551.6 325.636l-.245-2.268 1.287-2.207 1.778.552-.307 2.207-1.1 1.839z" class="cls-2" transform="translate(317.822 -150.864)"/>
        <path id="Path_52" d="M715.313 529.249l.052-3.344 4.285-4.494 5.487.261 2.874-2.352 4.964-1.306.732.523-6.01 8.2-5.957 1.2-2.4 1.62z" class="cls-2" transform="translate(235.297 -249.944)"/>
        <path id="Path_53" d="M757.707 526.774l.941-.627.1-2.822 1.463-.261 1.986 1.986-.157 2.247-1.149 1.2.1 3.292-2.665.261-1.568-4.39z" class="cls-2" transform="translate(214.433 -252.486)"/>
        <path id="Path_54" d="M767.279 513.689l-1.254-5.069 3.449-1.986 3.135-2.038 6.846-.47 3.606 2.4h.627l.836-.732 4.128.418.627 3.815.888.627-4.7 2.038-.47.993-2.038-.314-1.62 2.142-4.442.261-1.463-2.717-2.926-1.254-2.561 1.724z" class="cls-2" transform="translate(209.773 -242.954)"/>
        <path id="Path_55" d="M736.244 425.9l-2.46-2.125-.391-1.454 3.019.056 1.622 1.23-.5 2.181z" class="cls-2" transform="translate(226.197 -201.778)"/>
        <path id="Path_56" d="M715.112 417.626l1.342 4.026v8.448l.895 1.734-2.4 3.131.168 2.516-1.9 1.9-1.957-.392-1.789 3.355-6.43-5.368-.056-3.97 5.312-1.51.056-2.964-2.069-1.454-.447-3.02-2.4-.671-2.908-3.858 1.51-4.082 5.368.168 2.125-.951 3.12 1.336z" class="cls-2" transform="translate(242.743 -197.925)"/>
        <path id="Path_57" d="M674.953 420.027l.5-2.013-1.845-2.069.615-1.566 1.51.112 1.789-.391 2.125 2.013-.056 2.4-1.957 1.733z" class="cls-2" transform="translate(256.286 -197.642)"/>
        <path id="Path_58" d="M626.14 312.044l-1.349-1.655.123-3.985 1.41-1.042 2.636.123.674 2.268-1.839 2.759z" class="cls-2" transform="translate(280.858 -142.912)"/>
        <path id="Path_59" d="M715.526 346.054l.049-1.565 2.347-4.352 2.738-1.858.049-.88-3.961.147-1.516 2.69-3.178 3.619-6.455-1.712-4.792-4.89 2.592-6.161 8.117-1.614 4.939-1.516-.049-2.2 7.726-1.027 1.956.293.2 1.712 2.738 1.956-1.369 3.081 5.819 5.672.489 2.738 3.863 5.526-1.712 2.934-2.151-.831-1.027 2.738-5.672.245-8.02-2.69-2.69.1z" class="cls-2" transform="translate(242.598 -152.662)"/>
        <path id="Path_60" d="M649.407 254.165l-2.474 2.075.08 2.235-1.437 1.117.8 4.948-1.836 1.2h-2.314l-2.554-3.831-.4.4.319 2.873-4.629-.878-1.2-1.277-1.756.319-2.315-.878 1.2-5.347-1.676-4.07 5.028-2.155 6.784 1.437 1.277 1.756 1.437-.559 1.676-3.352 2.155-.16 2.235 3.272z" class="cls-2" transform="translate(278.632 -115.054)"/>
        <path id="Path_61" d="M791.464 773.857L795 769.9l5.033-.779.479 2.337-5.692 4.613-2.7-.659z" class="cls-2" transform="translate(196.969 -376.333)"/>
        <path id="Path_62" d="M815.671 746.85h-1.618l-.36-1.8-1.2-.419L811 743.2l1.738-2.217-3.056-6.351 3.116-2.457 2.217-8.508 1.5-1.138-.779-.9.539-1.5 1.318-.959.719-1.8 1.318.36.359 4.674-1.078 2.876.3 2.756-2.756 4.733.18 2.1 2.157 1.558.18 2.337.839 1.019-.959 3.355-1.917-.06-.719 2.636z" class="cls-2" transform="translate(187.8 -350.284)"/>
        <path id="Path_63" d="M260.129 415.751l-.081-1.626 2.033-1.626 1.057.732z" class="cls-2" transform="translate(464.441 -196.836)"/>
        <path id="Path_64" d="M263.556 418.229l-1.87 3.171.895.325 1.383-2.927z" class="cls-2" transform="translate(463.617 -199.72)"/>
        <path id="Path_65" d="M240.963 437.109l-1.708-3.741.895-.732 1.3 2.684z" class="cls-2" transform="translate(474.907 -206.972)"/>
        <path id="Path_66" d="M150.68 280.014l1.138-2.846 4.635-.651.732 1.057 3.009-2.114 1.3 1.789 2.927.732-.488 2.765-4.229 2.2v2.846l3.5 1.952-.895 3.578 1.464 1.708-.407 2.358 4.229 2.277 2.114-1.22 1.952 5.774-9.514-3.985-2.033-3.009-.732-5.286-3.09-.732-4.31-5.2.081-2.033z" class="cls-2" transform="translate(519.489 -127.862)"/>
        <path id="Path_67" d="M191.775 345.452l2.846 3.09 1.87-.813-1.626-2.358z" class="cls-2" transform="translate(498.805 -163.049)"/>
        <path id="Path_68" d="M212.24 448.487l.163-4.31 2.846-3.172.325-2.2 1.87-.488.325 1.626 3.09-.244.651-6.262 1.626-1.789 2.765 8.539-1.22 1.383.976 2.114 1.708-.976 6.505 9.677-.813 1.789-3.9.325-3.09-2.114-2.846 1.139-3.415-2.2-.325-3.5-1.708-3.659-.895 4.8-2.033.651z" class="cls-2" transform="translate(488.504 -206.477)"/>
        <path id="Path_69" d="M238.763 499.473l-.163-3.5 3.253-3.253 2.765 5.611 6.668 1.626.163 2.6 3.334 1.708-.081 1.057-4.473-1.464-1.87 1.3.651 3.578-2.277.163-6.587-6.749z" class="cls-2" transform="translate(475.236 -237.215)"/>
        <path id="Path_70" d="M239.373 397.7l1.111-3.759-1.084-1.341.726-2.358-1.279-3.495-1.975 1.018-2.591 1.727-.6 6.39-1.123.691.173 6.736 1.554-2.763 2.5 2.072 2.073-2.418 4.231 1.727-1.3-3.022 1.554-1.209z" class="cls-2" transform="translate(478.281 -183.875)"/>
        <path id="Path_71" d="M213.312 290.169l-.031.4 4.958.317 2.543.572.345-1.518 2.658-1.679 1.642 2.6.142 2.055h4.4l.391-.171.081-3.653 1.735-3.594 8.16-.115 3.481-1.989-1.175-2.137 3.8-4.694-2.5-3.2-4.466-.705-.119-2.869-3.556-2.982.425-1.7-1.261-.5.991-1.557-.418-5.117-1.855-.764-1.056-3.168 2.962-2.558 2.2 1.649.476-.595-.931-2.069-.513-3.428 1.629-.815.092-2.473-3.039-1.372-3.19 1.313-3.67-8.112 1.813-.906-.689-2.758-3.091.687-1.824-4.256 2.425-2.771-4.993-8.487-5.211-.877-2.379 3.444.432 3.886-1.382.864-.173 5.527-5.527 2.159-1.986-1.123-.864.777-2.763-.086-1.727 3.713-4.49 1.036 1.468 1.727-.086 2.5 3.454 4.749-2.245 2.332-.691-1.123-1.9.173-.086 5.272-3.454 2.159-.864 1.3-1.382-.259-6.995-1.9-.259.863 5.095 1.3 1.123 3.022-.345 3.281v1.813l4.4 3.022-1.9 1.813 1.123 2.677 1.554 1.3.777 3.54 4.145 2.159 3.627.259.777 2.418 5.095 6.131z" class="cls-2" transform="translate(503.133 -98.022)"/>
        <path id="Path_72" d="M257.725 180.34l5.513 9.372-2.477 2.831 1.328 3.1 3.213-.714 1.061 4.246-1.689.845 2.984 6.6 2.763-1.138 5.584 2.518 2.073.8.92-.526.852-2.044 1.606-1.606 7.329.752.662 2.481 4.222-1.3 7.826 1.332v-3.029l-2.153-2.936 3.019-1.409 8.579-9.952-.181-2.9 2.884-2.076.66-2.641-2.456-1 .467-2.688-1.874-1.543-.1-3.353-2.733.2-4.3-2.628-1.008-2.52.67-2.567-1.83-3.43 1.341-2.681-3.125-1.008-2.663-2.9-.1-2h-1.724l-1.293-4.783 4.414-3.09-1.421-2.149-3.1.212-1.036.345-.432 1.727h-1.382l-.777 1.468-2.677-.345-.777-1.813-4.318-.863-4.577 3.627-2.159.518-3.886-1.554-2.591 1.554-7.685.086 1.036 2.591-1.036 2.677 4.059 5.872-.864 5.786-2.418 1.813-.173 1.986-2.159 2.159-3.368-.691-2.591 1.9-.777 5.095-.36.521z" class="cls-2" transform="translate(468.233 -62.095)"/>
        <path id="Path_73" d="M341.778 118.855l-4.606 3.224.962 3.56h1.884l.125 2.51 2.3 2.507 3.865 1.247-1.591 3.182 1.778 3.334-.683 2.619.8 1.99 3.818 2.333 3.355-.249.121 3.863 1.96 1.614-.435 2.5 2.505 1.025-.918 3.673-2.753 1.983.127 2.044 3.066-1.022.906 3.8h.453l2.1-3.852h3.883l1.394 3.784-1.616 3.232 5.139 1.824 1.867 4.074 5.743-.845 1.317.494 1.359-.761-3-1.363-1.813-6.995-.432-4.318 1.641-3.886 2.591-5.958.345-.864-1.813-.864-.522-3.105 6.39-4.836 3.627-2.072 2.85-2.591.864.259.432 3.022-1.554.95-4.318 2.677-.259 1.3.864.086.518 1.813 1.123 1.727.518 2.677 2.418-.173 3.368 2.159 9.758 5.44 2.936 1.209.259 5.008-.691 1.468.95 1.986 1.986 3.281.259 3.627 5.958.432 4.318 2.245 5.527.864 2.591-1.123v-1.554l-2.763-.432-1.468-2.591-1.122-.432-7.426-3.8-1.9-4.836-2.677-.691v-5.008l3.022-1.123 5.354 2.418 3.022.259 5.266 5.525 2.159 4.836 3.713 3.713 1.554 2.5 1.209.691 3.022-4.49.863-2.332-.95-2.85.173-3.022-10.443-4.659-.6-1.641-2.073-1.382v-1.9l1.209-2.072 1.986.6 1.3-1.036 2.418-.259v1.9l2.763 1.641 1.568-1.091.738-4.979-.6-2.314-.672 1.389-2.936-.518-2.159-1.727-.086-4.059 2.85-.259.432-2.418-4.922-2.591-1.468-3.109-2.332-.6.086-3.54 5.181-2.418.15.121.84-2.624 4.035-.336.533-2.238 3.411-2.09-.222-1.779 2.209-1.628.591-3.151-3.561-2.226v-2.475l-2.787-1.672-1.335 2.447-4.138-2.006-.04-.033-5.385-4.469-1.7-4.365 1.114-1.782-.453-.906-3.761-.118-.087-4.807-7.375-1.686-3.972 2.85-1.05-1.899h-2.331l-1.9 1.382-.086 1.727-1.468 1.123-15.457-.95-3.54.432-.777 11.053h-1.813l-1.468-2.072-1.122.086-2.677 3.368H368.8l-3.627-.6-3.8-1.813-4.145.173-2.591 2.072-2.677-1.727-6.217 3.8-.432 2.072-5.008 4.4-.367 2.053z" class="cls-2" transform="translate(425.623 -33.782)"/>
        <path id="Path_74" d="M291.32 279.165l.106 2.543 4.1.648 3.135 4.013-3.867 4.777.947 1.722 1.612-.329.428-1.454 3.022-1.668 1.343 1.074 2.753-1.652.79-2.666 6.762 1.639-.745 3.258 1.938 1.107 1.191-1.374 4.46 3.041.179 3.4 1.241.709.406 2.841 6.676-2.372.791 1.23 2.917-1.386-.628-1.884-2.726-1.128.147-1.617 2-.476 2.082-4.077.011-.017 1.5-2.355 1.581 1.054.495 1.733h4.421l2.254 3.627.153 1.762 1.907-.091.271 5.145 8.7-.266 1.018 2.22 3.592.668 4.254-.483.714 2.23 2.409-.438 1.112-1.854 2.44.09 1-1.539-.777-.864-1.641.086-2.159-4.49-1.3.6-1.123-3.109-2.677-.259-.6-4.749 4.231-.345.432-3.109.95-.173 1.986 1.468 4.663.864 3.281 5.958-1.382 1.9-1.209.173-.691-1.468-1.986.345-1.468 3.454 1.3 1.727 6.736-.345 1.21-2.234 2.245-.518 2.677-1.641.086-3.281-3.368-6.735-2.591-2.332-1.3-2.763-2.332-.95-3.022-5.527-5.7-2.332-2.85-7.426.173-5.095-6.649-6.131-.915-4.159-2.122 1.188-1.484-.557-6.163.906-1.985-4.33-5.716-2.028 1.886-3.771-1.057-2.869h-2.769l-2.1 3.852h-1.648l-.845-3.55-2.591.864-8.737 10.135-2.234 1.042 1.7 2.316v4.33l-8.632-1.469-4.883 1.5-.739-2.772-6.323-.649-1.2 1.2-.9 2.158-1.531.875-2.49-.959-1.369-.618-.1 2.633-1.527.764.4 2.675 1.1 2.441-1.328 1.66-2.312-1.734-2 1.726.748 2.244 1.978.815.484 5.933-.588.923.994.4-.477 1.908z" class="cls-2" transform="translate(452.01 -107.823)"/>
        <path id="Path_75" d="M501.554 472.109l-1.036-9.93-.518-2.333.518-1.3 2.5.173.086-5.785-3.368-2.85-1.036-1.727-9.413-3.54-2.166-.3-2.958 4.317-.182 5.174-1.422 1.523-3.714 1.955-2.111-1.372-1.387-2.689-2.48-.257-1.561-.961.8-2.092h-1.2l-2.332 1.85v2.709l-7.1.646-.2.386 1.508 3.359-2.2.669.627 3.92-.959 1.55 3.022.9.735 2.6 2.4-1.6 7.254.6-1.123 2.5 2.677 2.591 6.3-3.109-.259-3.972-1.036-1.555a4.246 4.246 0 0 1 1.468-.432 6.467 6.467 0 0 1 2.073 1.036l-.6 2.159-.259 2.591.6 1.727 2.59-.95 1.555 2.677 1.813 4.231 3.454-.259 1.9 3.454 1.122 1.209.086 2.5 5.354.95 1.727-1.468.518-3.627.691-1.037v-2.763l-1.209-1.3z" class="cls-2" transform="translate(363.676 -212.953)"/>
        <path id="Path_76" d="M551.029 208.98l-1.641-.345-1.3-1.9-4.663-1.123-2.245-3.454-1.813-.086-.041.085.9 3.47-.779 5.26.961 1.2 5.268.432 2.331 3.368.432 1.813 2.245 1.641 2.332 2.936 3.972-.777 1.123-3.2-4.577-5.095z" class="cls-2" transform="translate(323.873 -90.924)"/>
        <path id="Path_77" d="M479.911 529.153l-1.554-.6-1.122 1.813-.864-.6 1.209-2.5-2.073-3.368-3.54 1.468v1.986l1.033 1.37-1.3.864-4.741-2.586-1.33 3.684 4.352 1.935 1.375-.423.889 1.877 3.268.981 1.686-.749 2.086 1.3-2.185 2.295-.223.751h1.912l3.022-1.641-.95-3.368 1.3-2.591z" class="cls-2" transform="translate(360.968 -252.9)"/>
        <path id="Path_78" d="M638.28 64.612l-.432-8.894-3.195-1.554-7.6-3.8-3.109-.6-2.85-1.727-.95.6-2.85-.518-1.986 2.418-1.381.173.691 4.49 2.331.518 1.382 3.022 1.123 1.641-1.468 3.109 2.159 2.85-1.468 1.036-1.554 4.145-4.663.345-1.3 2.332-5.008.259-.345-1.036-2.759-1.121-1.468 1.554-2.332.345-.6 1.468-1.813-1.123-5.095-.6-.864 2.245-2.418-.691-7.685 3.627-3.2-.6-.6-3.281-12.262-6.649-4.663.518-1.648 2.58-2.677-1.727.259-2.245-5.181-.432-2.332-3.2-1.036-5.008-3.886.173-.259 1.727-6.39 1.123-.432-2.245-2.331-1.123-3.281 2.418-3.022-1.3-1.986 1.554-.086 3.886-2.16-.164-2.418.864-1.554-1.554-1.122 1.641-3.886.518-2.072 1.813-3.022-.173-2.245 1.986-.824-.188.069 3.771 3.455.108.9 1.8-1.141 1.826 1.459 3.753 5.173 4.292 3.3 1.6 1.371-2.514 3.978 2.387v2.486l3.655 2.284-.762 4.065-2.076 1.529.229 1.829-3.58 2.194-.595 2.5-4.083.34-.766 2.393 1.375 1.11 8.635 1.727 5.009-2.936 6.476-3.022-.432-3.627 3.2-2.159 5.181-1.382 3.368 5.181 1.554.259 1.641-.6 1.55.769 4.318.086 3.368-3.281 5.527-1.986.086-.95 1.813-2.332 1.727.086.346.6 1.036 1.986 6.131 1.727 2.072-.95 8.549 4.231 20.12 1.727 1.9 2.85 1.9 2.418 2.418.086 2.763-5.181 1.727-.864.432-1.382 1.123-2.159 2.677-.6.345-2.332 1.986-.432-.6-1.727 1.209-1.209v-1.636l-2.159-1.641.087-5.44-.6-1.382 1.641-5.008 1.3.777 7.254-5.872 3.022 1.209 1.727-3.454z" class="cls-2" transform="translate(340.417 -13.392)"/>
        <path id="Path_79" d="M402.992 510.188l.355-1.2 1.6-1.675-.8-.5-1.559.693-3.943-1.183-.733-1.548-.969.3-5.382-2.392 2.128-5.894-.318-4.651-1.209-.777 1.727-2.763-1.554-4.49-5.354.345-1.036-.777.6-1.3 1.123-.345 4.577-.863.727-.485-.681-2.407-3.649-1.085 1.384-2.236-.558-3.485-2.923.89-4.4-.863-3.368 2.677 3.54 3.454-.6 1.122-3.242-.377-1.822-1.309-.74-1.651-6.491-4.612-3.815-1.366-2.562-2.107-5.124.114-.01-.009-.541 8.584-4.794 2.985-.259 1.9-1.012 1.246 2.449 2.646-3.591 1.231-.963 2.5-2.179-.484-.656-1.23-1.336.334-1.269 1.562-8.08-2.693-.266-1.065-3.414 2.378.957 5.484-1.193 6.39.589.078.809-1.707 2.935.339.914 3.108 2.515.694 2.446 3-4.926 1.895.374 2.9-9.872 1.025-1.4 1.1-.171 3.929-5.352 5.75.228 7.117 3.245 4.1.683 2.562 2.163.683-1.139 2.221.569 2.961 3.132 3.245 2.334-.285 3.872 4.726 4.669-5.181-.228-1.31-1.31-.8-.171-7.857 6.661-1.651 1.822 3.074-1.48 2.22 1.139 1.537 3.871.342 1.822 3.7.342 1.367 2.847 5.75.455 6.832-.968 2.562 1.993 3.017 1.651.171 3.3 3.473 1.707-.778-.259-2.332.863-2.5-.95-.777-.518-4.836 2.5-3.713.173-.95-.6-.432.518-1.209 1.813-1.036-.345-1.813.95-1.209 6.649-.259 1.382 5.095 1.3 2.591 1.468-.432.259 2.073 3.713 4.749-1.554 4.145 3.972.864-.259-3.54 2.331.345.95 2.85 2.332 1.9 4.663-1.986-2.763-3.022-1.382-3.454-3.972-3.022.259-5.354 2.332-.173 1.123-2.5-4.582-10.634-.173-5.009-2.327-4.23-2.245-.95v-3.022l-3.281-7.858-2.5-3.022-2.331-8.635 1.986-.863 3.368 3.368 3.54-.518 2.591 3.368 4.663.432.345 1.122-2.763 3.454 3.2 3.2 2.245 1.3 1.641-.691.691-2.159 4.318-.086.259-1.209-1.123.173-.173-1.468 2.332-1.036z" class="cls-2" transform="translate(433.952 -224.435)"/>
        <path id="Path_80" d="M304.6 500.544l1.5-1.173 9.238-.959-.347-2.692 4.448-1.711-1.52-1.865-2.719-.744-.888-3.021-1.752-.2-.814 1.718-2.115-.282 1.331-7.131-1.026-5.873 4.886-3.4.455 1.819 7.063 2.354 1.074-1.322 2.27-.567.786 1.474 1.065.237.84-2.184 2.718-.932-2.057-2.222 1.332-1.639.281-2.064 4.761-2.964.559-8.862-1.451-1.379-3.473.228-3.473-1.822-.4-.854-2.164-2.106-1.082.057-1.765-1.025-.968-1.708-2.505-.911-6.718.569-9.053 9.622-2.961.057-7.515-3.245-1.594.456-.342 4.441-1.936 4.327-5.409 5.75-2.733-.911-1.765 7.458 8.711 3.245.456 5.295.911 3.245 1.309.285 1.366-1.48 8.54 6.547z" class="cls-2" transform="translate(455.068 -214.108)"/>
        <path id="Path_81" d="M260.273 395.294L262 397.28l-.6 1.727 2.5 3.972 5.958-.691 1.209-3.2 2.418-1.986 1.554 1.036.432 2.5 2.677 1.209 3.109.691 1.813-1.468 9.412-1.3 1.986-1.468.458-.027 1.329-2.459.094-3.581 5.2-2.6-.163-1.793.825-2.063-1.953-1.674 1.109-1.613-.646-3.324 2.181-1.745-1.012-1.952-1.846-.509.161 2.408-2.41.986-3.1-.9-.413 2.727-2.392 1.007-.634-2.356-1.729.677-6.243-.864-1.284-4.136.816-3.773 2.273-.091.244-.879-5.642-1.234-.275-4.534-5.884-1.775 3.276-6.46-2.186-1.009-.011-1.435-3.4 1.944-7.85.111-1.422 2.945-.068 3.065.54-.236 1.353 2.706V366l-3.157 1.24-.9-1.691-3.721-1.353-3.044.9-2.481-.9-4.51-2.029-1.9.677.332 1.709 1.9 2.331v2.159l-.777.432-.1.052 1.416 3.87-.675 2.195.917 1.128.17-.077 4.4-.864 1.813 5.527 2.763 1.036 1.554 2.418.691 6.217 1.122.432 1.554-.173.691 2.418-1.036.259z" class="cls-2" transform="translate(472.492 -167.052)"/>
        <path id="Path_82" d="M395.468 399.451l2.748.284 1.5 2.9 1.495.971 3.136-1.651 1.1-1.181.179-5.1 2.857-4.169-.592-.083-1.554-1.036-5.268-6.822-5.181-1.727-3.109-1.209.95-4.577-3.368-1.986-2.159-.6-2.418-1.036-1.641 1.9-1.641.086-1.382-5.44-5.268-.691-.95-1.123-1.123-.345-2.159.864-.6-1.3-3.972.259-1.036-3.109-3.8-.432-1.382.259-.95-.864 1.641-.777 1.468.777 3.109.432 3.281-.6 1.554-1.382 7.513-4.4.867-1.331-1.413-.052-1.051 1.752-3.54.644-.729-2.277-3.678.418-4.16-.774-.965-2.107-8.969.275-.27-5.131-1.878.089-.207-2.384-1.892-3.044h-4.593l-.587-2.054-.583-.388-1.014 1.594-2.245 4.4-1.785.425-.033.366 2.5 1.036.994 2.983-4.294 2.04-.832-1.293-7.025 2.5-.5-3.468-1.283-.733-.181-3.447-3.472-2.367-1.152 1.33-3.11-1.777.7-3.052-5.136-1.245-.652 2.2-3.556 2.134-1.361-1.089-2.206 1.217-.474 1.611-2.084.426.01 1.269 2.5 1.155-3.214 6.34 5.474 1.651.269 4.481 5.9 1.29-.657 2.366-2.234.089-.626 2.9 1.057 3.415 5.475.758 2.417-.946.628 2.331 1.034-.435.488-3.222 3.754 1.087 1.556-.636-.2-3 3.382.933 1.512 2.916-2.326 1.861.616 3.166-.874 1.272 1.833 1.571-.978 2.444.2 2.173-5.26 2.63-.086 3.269-1.172 2.169 2.845-.171 1.468-1.036 1.641.518 3.2 1.382 5.872 1.813.777-.518 6.736.173 1.641-1.123-.086-2.159 1.209-1.554 2.763 2.763 1.468 3.713 2.073 1.727 2.072-1.3.259-2.85.691-.259.95 1.382 3.886 2.072v2.936l3.022 1.036 2.5-.086.345 1.382 2.418.518 4.059-.691.259 1.3 2.159.345 1.752-.557.2-.379 6.781-.616v-2.358l2.9-2.3h2.762l-1 2.6z" class="cls-2" transform="translate(441.365 -160.07)"/>
        <path id="Path_83" d="M442.993 375.522l-1.839 2.268-5.824.245-.123-1.962 6.621-4.291 3.433-1.655.981-1.41 3.8-2.82 1.594.552 2.636-1.349 5.272 1.042.8 2.759 2.146.8 1.042 5.946 6.682 5.088h4.414l4.414 4.414 5.088.858 1.41-1.287 9.625 2.146-.429 2.452-1.41 1.41 1.1 1.349 3.617 2.268-2.207 4.782 2.268 5.517-.368 1.471 2.084 3.985-.307 2.023L505.89 415l3.862.858 3.126-.858 1.533.8-.981 3.985 1.165 1.655-3.188 6.743-2.636.123-2.7-2.575-2.82.184-2.391-1.349-2.084-3.74-3.372-.061-.061-1.839-1.655-1.287 1.1-2.452-.49-1.594-1.41.429-2.452-5.211.8-1.042-2.636-.429-1.287-1.226 1.41-1.042-1.533-1.655-10.422.368-4.23-2.452-8.705-10.115-.306-1.594-7.54-7.418-1.9-.429-4.843-4.169-3.372.429-1.471-1.165-.123-1.349z" class="cls-2" transform="translate(376.28 -172.98)"/>
        <path id="Path_84" d="M576.408 379.188l1.042-2.084.245-3.862 2.084-.858 5.149 3-.307 3.862 4.23 2.452-.491 3.8-5.211.981-1.778-2.7.307-1.594-3.8-2.207z" class="cls-2" transform="translate(305.211 -176.645)"/>
        <path id="Path_85" d="M481.795 560.794l-.679-1.724 6.846-4.337 3.606.052 1.15 1.045-3.867 2.3.313 1.306-6.164 1.253z" class="cls-2" transform="translate(353.173 -268.425)"/>
        <path id="Path_86" d="M671.84 201.272l-5.507-5.427.479-1.756 1.676.319 2.474-1.437 5.826.718 2.873 2.793-.638 1.836-.479 2.554-4.23.718z" class="cls-2" transform="translate(259.949 -86.344)"/>
        <path id="Path_87" d="M582.617 167.45l2.554-5.267 4.469-2.793 3.591.8 2.953 2.793.559 8.38-5.427 2.235h-2.873l-1.437-1.756-2.314-.239z" class="cls-2" transform="translate(302.086 -69.441)"/>
    </g>
</svg>
