<svg xmlns="http://www.w3.org/2000/svg" width="24.667" height="24.667" viewBox="0 0 24.667 24.667">
  <g id="Group_674" data-name="Group 674" transform="translate(-1.646 -1.651)">
    <g id="Path_1515" data-name="Path 1515" transform="translate(1.646 1.651)" fill="none">
      <path d="M12.333,0A12.333,12.333,0,1,1,0,12.333,12.333,12.333,0,0,1,12.333,0Z" stroke="none"/>
      <path d="M 12.3333740234375 1.000003814697266 C 9.306114196777344 1.000003814697266 6.460054397583008 2.178884506225586 4.319463729858398 4.319463729858398 C 2.178884506225586 6.460054397583008 1.000003814697266 9.306114196777344 1.000003814697266 12.3333740234375 C 1.000003814697266 15.36062431335449 2.178884506225586 18.20668411254883 4.319463729858398 20.34727478027344 C 6.460054397583008 22.48786354064941 9.306114196777344 23.66674423217773 12.3333740234375 23.66674423217773 C 15.36062431335449 23.66674423217773 18.20668411254883 22.48786354064941 20.34727478027344 20.34727478027344 C 22.48786354064941 18.20668411254883 23.66674423217773 15.36062431335449 23.66674423217773 12.3333740234375 C 23.66674423217773 9.306114196777344 22.48786354064941 6.460054397583008 20.34727478027344 4.319463729858398 C 18.20668411254883 2.178884506225586 15.36062431335449 1.000003814697266 12.3333740234375 1.000003814697266 M 12.3333740234375 3.814697265625e-06 C 19.14490509033203 3.814697265625e-06 24.66674423217773 5.521833419799805 24.66674423217773 12.3333740234375 C 24.66674423217773 19.14490509033203 19.14490509033203 24.66674423217773 12.3333740234375 24.66674423217773 C 5.521833419799805 24.66674423217773 3.814697265625e-06 19.14490509033203 3.814697265625e-06 12.3333740234375 C 3.814697265625e-06 5.521833419799805 5.521833419799805 3.814697265625e-06 12.3333740234375 3.814697265625e-06 Z" stroke="none" fill="#5f5f5f"/>
    </g>
    <path id="Path_1516" data-name="Path 1516" d="M2.666-5.682a.3.3,0,0,1,.095.218.3.3,0,0,1-.095.218L-1.755-.825a.3.3,0,0,1-.218.095.3.3,0,0,1-.218-.095L-2.666-1.3a.3.3,0,0,1-.095-.218.3.3,0,0,1,.095-.218L1.063-5.464-2.666-9.193a.3.3,0,0,1-.095-.218.3.3,0,0,1,.095-.218l.474-.474a.3.3,0,0,1,.218-.095.3.3,0,0,1,.218.095Z" transform="translate(15.006 19.448)" fill="#5f5f5f"/>
  </g>
</svg>
